<?xml version="1.0" standalone="no"?>
<!DOCTYPE svg PUBLIC "-//W3C//DTD SVG 20010904//EN"
 "http://www.w3.org/TR/2001/REC-SVG-20010904/DTD/svg10.dtd">
<svg version="1.0" xmlns="http://www.w3.org/2000/svg"
 width="1668.000000pt" height="229.000000pt" viewBox="0 0 1668.000000 229.000000"
 preserveAspectRatio="xMidYMid meet">

<g transform="translate(0.000000,229.000000) scale(0.100000,-0.100000)"
fill="#000000" stroke="none">
<path d="M3045 2270 c-639 -84 -1042 -656 -940 -1334 43 -286 169 -516 373
-677 181 -144 382 -218 657 -241 304 -25 596 45 825 197 72 48 206 181 259
258 194 283 243 731 120 1085 -136 389 -477 660 -894 711 -101 12 -308 13
-400 1z m410 -410 c127 -40 195 -84 283 -184 58 -65 118 -182 148 -286 15 -52
19 -100 19 -240 0 -199 -15 -271 -83 -410 -73 -149 -235 -277 -398 -316 -90
-22 -258 -22 -346 0 -216 51 -385 217 -456 447 -58 188 -48 441 24 620 107
264 331 405 629 395 77 -3 131 -11 180 -26z"/>
<path d="M8447 2265 c-272 -52 -470 -183 -564 -375 -52 -106 -65 -159 -65
-281 1 -273 133 -460 402 -567 93 -37 218 -64 420 -92 255 -34 356 -67 422
-137 105 -111 62 -295 -88 -372 -139 -72 -409 -66 -557 12 -105 55 -214 196
-253 328 -9 30 -20 49 -27 46 -7 -2 -106 -35 -220 -73 l-208 -69 6 -32 c3 -18
19 -63 34 -101 101 -245 320 -427 597 -497 249 -64 606 -49 820 34 118 46 198
98 275 178 113 120 169 262 169 433 0 216 -86 379 -264 498 -145 97 -294 143
-600 187 -218 31 -298 53 -357 98 -56 42 -80 92 -80 160 0 69 19 114 71 171
67 73 216 107 371 86 129 -18 205 -55 285 -138 42 -44 114 -169 114 -198 0 -8
2 -14 4 -14 7 0 429 150 433 154 7 7 -39 112 -74 169 -119 196 -309 327 -553
383 -96 22 -413 28 -513 9z"/>
<path d="M10833 2269 c-457 -59 -801 -365 -920 -818 -35 -132 -43 -382 -18
-531 74 -446 357 -755 792 -866 145 -37 325 -50 478 -35 305 29 535 129 716
310 140 141 223 287 276 489 35 134 44 404 18 549 -88 494 -449 839 -945 903
-88 11 -308 11 -397 -1z m349 -394 c193 -40 347 -160 431 -335 68 -142 81
-207 82 -390 0 -179 -15 -256 -74 -385 -117 -253 -377 -391 -667 -355 -119 15
-203 45 -292 104 -180 120 -278 323 -289 596 -10 246 59 452 200 594 151 152
384 218 609 171z"/>
<path d="M15540 2274 c-139 -25 -227 -51 -319 -96 -90 -43 -116 -62 -185 -132
-60 -60 -91 -101 -119 -159 -128 -257 -59 -585 155 -743 134 -98 255 -141 509
-179 370 -54 458 -81 525 -158 93 -110 53 -286 -82 -359 -102 -55 -307 -75
-443 -43 -174 41 -327 190 -379 368 -8 29 -15 53 -16 54 -2 2 -384 -123 -433
-142 -9 -3 -5 -25 15 -82 40 -114 93 -201 173 -287 144 -154 303 -239 525
-282 118 -22 380 -23 522 -1 401 63 639 291 659 632 19 331 -191 571 -587 670
-52 13 -188 37 -302 54 -159 23 -222 36 -268 57 -162 73 -197 229 -78 359 56
61 100 80 221 96 160 20 317 -24 417 -117 54 -51 110 -135 130 -197 7 -21 17
-36 24 -34 6 2 104 37 218 77 l206 72 -13 38 c-52 149 -180 306 -324 399 -72
46 -191 94 -289 117 -65 15 -405 28 -462 18z"/>
<path d="M40 2035 l0 -195 370 0 370 0 0 -890 0 -890 235 0 235 0 0 890 0 890
373 2 372 3 3 193 2 192 -980 0 -980 0 0 -195z"/>
<path d="M4800 1145 l0 -1085 235 0 235 0 2 876 3 877 296 -874 296 -874 209
-3 210 -2 301 882 302 883 1 -882 0 -883 235 0 235 0 0 1085 0 1085 -372 -2
-373 -3 -202 -590 c-266 -776 -316 -916 -324 -907 -11 12 -50 123 -289 827
l-228 670 -386 3 -386 2 0 -1085z"/>
<path d="M13950 1523 c-1 -390 -5 -754 -10 -809 -20 -224 -87 -308 -245 -307
-176 0 -255 116 -272 396 -4 67 -10 107 -17 107 -6 0 -112 -27 -236 -59 l-225
-58 3 -64 c17 -327 201 -584 484 -674 109 -34 261 -48 383 -34 288 32 455 159
540 413 58 172 57 166 62 1014 l4 782 -235 0 -236 0 0 -707z"/>
</g>
</svg>
