<?xml version="1.0" encoding="UTF-8"?>
<svg id="Capa_1" data-name="Capa 1" xmlns="http://www.w3.org/2000/svg" viewBox="0 0 300 266.35">
  <g>
    <polyline stroke="currentColor" stroke-width=".5px" fill="none" stroke-miterlimit="10" points="49.77 116.74 49.77 116.75 49.75 116.75 25.04 135.44 25.04 135.45 .31 154.14 .31 154.15"/>
    <rect stroke="currentColor" stroke-width=".75px" fill="none" stroke-miterlimit="10" x="71.5" y="4.54" width="69.24" height="52.36"/>
    <polygon fill="#c9cac7" points="0 166.82 0 61.65 57.66 61.65 57.66 143.22 126.86 209.41 238.11 209.41 238.11 266.35 103.11 266.35 0 166.82"/>
    <polygon fill="#c9cac7" points="296.08 104.21 295.97 209.38 238.3 209.35 238.39 127.77 169.26 61.55 58.01 61.48 58.07 4.54 193.07 4.62 296.08 104.21"/>
    <polygon fill="currentColor" points="3.97 161.61 3.97 56.44 61.64 56.44 61.64 138.01 130.83 204.2 242.09 204.2 242.09 261.14 107.09 261.14 3.97 161.61"/>
    <polygon fill="currentColor" points="300 99.67 299.89 204.85 242.23 204.81 242.31 123.24 173.19 57.01 61.93 56.95 61.99 0 196.99 .08 300 99.67"/>
  </g>
  <g>
    <rect fill="#c9cac7" x="120.2" y="112.82" width="21.83" height="11.68"/>
    <polygon fill="#c9cac7" points="174.78 124.49 174.78 136.16 152.95 136.16 152.95 159.51 142.03 159.51 142.03 124.49 174.78 124.49"/>
  </g>
  <g>
    <rect fill="currentColor" x="121.3" y="111.38" width="21.83" height="11.68"/>
    <polygon fill="currentColor" points="175.87 123.06 175.87 134.73 154.04 134.73 154.04 158.07 143.13 158.07 143.13 123.06 175.87 123.06"/>
  </g>
</svg>